<?xml version="1.0" encoding="UTF-8" standalone="no"?>
<svg
   width="32"
   height="32"
   viewBox="0 0 8.4666659 8.4666669"
   version="1.1"
   xmlns="http://www.w3.org/2000/svg"
   xmlns:svg="http://www.w3.org/2000/svg">
  <g
     id="layer1">
    <path
       style="fill:#96775c;fill-opacity:1;stroke:#3b2e23;stroke-width:0.339605;stroke-linecap:butt;stroke-linejoin:round;stroke-miterlimit:4;stroke-dasharray:none;stroke-opacity:1"
       d="M 1.6576781,7.9273139 0.61673655,5.4836959 c 0,0 -0.53382155,-1.4638552 -0.27089765,-1.9427306 0.072108,-0.1313331 0.20487555,-0.1350439 0.34521335,-0.143619 0.37623795,-0.022989 0.52913305,0.7831983 0.52913305,0.7831983 0,0 -0.2194595,-0.7659385 0.057247,-1.0174606 0.086642,-0.078756 0.6183248,-0.089972 0.7237635,0.00962 0.1423327,0.1344499 0.1652296,0.7520533 0.1652296,0.7520533 0,0 0.039114,-3.23986665 0.2849518,-3.75110654 0.034354,0.0152752 0.2645226,-0.0259103 0.2873485,0.0151098 0.3543542,0.63680529 0.3979927,3.67126154 0.3979927,3.67126154 0,0 0.036877,-1.0036356 0.3009159,-1.0026296 0.046718,1.781e-4 0.5637347,-0.00878 0.5966957,0.086364 0.1533237,0.4425669 -0.097803,2.3530061 -0.097803,2.3530061 0,0 0.6443787,-0.9889805 0.7859214,-1.8750118 0.1407731,-0.016027 0.2687926,0.2326816 0.2898643,0.4594111 0.067274,0.7238603 -0.3986008,2.1975556 -0.3986008,2.1975556 0,0 -0.5010453,0.9400776 -0.9446939,1.2983073 -0.3261708,0.263375 -0.5019102,0.9198465 -0.5019102,0.9198465 z"
       id="path857" />
    <g
       aria-label="DIY"
       id="text29194"
       style="font-weight:bold;font-size:10.5833px;line-height:1.25;font-family:FreeMono;-inkscape-font-specification:'FreeMono, Bold';fill:#000000;fill-opacity:1;stroke-width:0.264583"
       transform="matrix(0,0.4693411,-0.4693411,0,4.8528635,0.01921016)">
      <path
         d="m 1.1366006,-1.0903476 c -0.47272072,0 -0.70908108,-0.1763883 -0.70908108,-0.529165 0,-0.1693328 0.0564443,-0.2998602 0.16933279,-0.3915821 0.11288853,-0.091722 0.27163803,-0.1375829 0.47624849,-0.1375829 v -4.0534038 c -0.43038752,0 -0.64558128,-0.1763883 -0.64558128,-0.529165 0,-0.2116659 0.059972,-0.3527766 0.17991609,-0.4233319 0.1269996,-0.070555 0.30338793,-0.105833 0.52916499,-0.105833 h 2.2436595 c 0.7690531,0 1.4146344,0.2822213 1.9367439,0.8466639 0.5291649,0.5644427 0.7937474,1.2629405 0.7937474,2.0954934 v 0.497415 c 0,0.8254974 -0.2575269,1.4887175 -0.7725808,1.9896604 -0.5079984,0.4938873 -1.1888574,0.740831 -2.0425769,0.740831 z m 3.9158209,-3.249073 c 10e-8,-0.529165 -0.1622773,-0.9701358 -0.4868318,-1.3229125 -0.317499,-0.3598322 -0.740831,-0.5397483 -1.269996,-0.5397483 H 2.1314308 v 4.0534038 H 3.306177 c 0.3527767,0 0.6491091,-0.052916 0.8889972,-0.1587495 0.2469437,-0.105833 0.4268598,-0.2504714 0.5397483,-0.4339153 0.1199441,-0.1834439 0.2010827,-0.36336 0.2434159,-0.5397483 0.049389,-0.1763883 0.074083,-0.3668877 0.074083,-0.5714982 z"
         id="path32678"
         style="fill:#000000;fill-opacity:1"/>
      <path
         d="m 10.354635,-2.1486776 q 0.338666,0 0.518582,0.1164163 0.179916,0.105833 0.179916,0.4127487 0,0.529165 -0.698498,0.529165 H 7.1584786 q -0.6984977,0 -0.6984977,-0.529165 0,-0.3069157 0.1799161,-0.4127487 0.179916,-0.1164163 0.5185816,-0.1164163 H 8.2273919 V -6.2020814 H 7.1584786 q -0.6984977,0 -0.6984977,-0.529165 0,-0.3069156 0.1799161,-0.4127486 0.179916,-0.1164163 0.5185816,-0.1164163 h 3.1961564 q 0.338666,0 0.518582,0.1164163 0.179916,0.105833 0.179916,0.4127486 0,0.529165 -0.698498,0.529165 H 9.2857219 v 4.0534038 z"
         id="path32680"
         style="fill:#000000;fill-opacity:1" />
      <path
         d="m 12.651193,-1.6195126 c 0,-0.211666 0.05997,-0.3527767 0.179916,-0.423332 0.127,-0.070555 0.303388,-0.105833 0.529165,-0.105833 h 0.687915 v -1.5345785 l -1.746245,-2.5188253 c -0.451554,0 -0.677331,-0.1763883 -0.677331,-0.529165 0,-0.3527766 0.236361,-0.5291649 0.709081,-0.5291649 h 0.941914 c 0.465665,0 0.698497,0.1763883 0.698497,0.5291649 0,0.2328326 -0.134055,0.4056932 -0.402165,0.5185817 l 1.005414,1.4393288 0.99483,-1.4393288 c -0.282221,-0.105833 -0.423332,-0.2786936 -0.423332,-0.5185817 0,-0.2116659 0.05997,-0.3527766 0.179916,-0.4233319 0.127,-0.070555 0.303388,-0.105833 0.529165,-0.105833 h 0.973663 c 0.225778,0 0.398638,0.038805 0.518582,0.1164163 0.119944,0.070555 0.179916,0.2081382 0.179916,0.4127486 0,0.3527767 -0.229304,0.529165 -0.687914,0.529165 l -1.735661,2.5188253 v 1.5345785 h 0.687914 c 0.472721,0 0.709081,0.1763883 0.709081,0.529165 0,0.3527767 -0.23636,0.529165 -0.709081,0.529165 h -2.434159 c -0.47272,0 -0.709081,-0.1763883 -0.709081,-0.529165 z"
         id="path32682"
         style="fill:#000000;fill-opacity:1"/>
    </g>
  </g>
</svg>
